<svg width="212" height="112" viewBox="0 0 212 112" fill="none" xmlns="http://www.w3.org/2000/svg">
<path d="M0 0H26V18.6667H17V92.046H26V112H0V0Z" fill="#FFC930"/>
<path d="M164.5 20.7839L181.5 20.7839L161 91.2838L149.562 91.2838L138.5 91.2838L119 20.7839L137 20.7839L149.562 70L164.5 20.7839Z" fill="#FFC930"/>
<path d="M71.5 69.2838L85 21.2838H110.5V91.7838H93V57.7838L80.5 91.7838H61.5L50.5 57.7838V91.7838H33V21.2838H55.5L71.5 69.2838Z" fill="#FFC930"/>
<path d="M212 112H186V93.3333H195V19.954H186V-4.76837e-06H212V112Z" fill="#FFC930"/>
</svg>
