<svg width="388" height="325" viewBox="0 0 388 325" fill="none" xmlns="http://www.w3.org/2000/svg">
<rect x="4.8326" y="-1.14995" width="50.5198" height="180.443" transform="matrix(-0.422618 0.906308 -0.785533 -0.61882 175.799 267.096)" fill="black" stroke="white" stroke-width="8"/>
<rect x="4.8326" y="-1.14995" width="50.5198" height="180.443" transform="matrix(-0.422618 0.906308 -0.785533 -0.61882 380.177 113.096)" fill="black" stroke="white" stroke-width="8"/>
<rect x="1.45166" y="-6.10051" width="50.5198" height="180.443" transform="matrix(0.422618 0.906308 -0.785533 0.61882 147.904 8.98524)" fill="black" stroke="white" stroke-width="8"/>
<rect x="1.45166" y="-6.10051" width="50.5198" height="180.443" transform="matrix(0.422618 0.906308 -0.785533 0.61882 352.282 162.985)" fill="black" stroke="white" stroke-width="8"/>
<rect y="217" width="107" height="388" transform="rotate(-90 0 217)" fill="#70C9A9"/>
<path d="M135.568 134.818L149.631 179.023H150.17L164.261 134.818H177.898L157.841 193H141.989L121.903 134.818H135.568ZM187.195 193H174.013L194.098 134.818H209.95L230.007 193H216.825L202.251 148.114H201.797L187.195 193ZM186.371 170.131H217.507V179.733H186.371V170.131ZM267.244 151.551C267.017 149.259 266.042 147.479 264.318 146.21C262.595 144.941 260.256 144.307 257.301 144.307C255.294 144.307 253.598 144.591 252.216 145.159C250.833 145.708 249.773 146.475 249.034 147.46C248.314 148.445 247.955 149.562 247.955 150.812C247.917 151.854 248.134 152.763 248.608 153.54C249.1 154.316 249.773 154.989 250.625 155.557C251.477 156.106 252.462 156.589 253.58 157.006C254.697 157.403 255.89 157.744 257.159 158.028L262.386 159.278C264.924 159.847 267.254 160.604 269.375 161.551C271.496 162.498 273.333 163.663 274.886 165.045C276.439 166.428 277.642 168.057 278.494 169.932C279.366 171.807 279.811 173.956 279.83 176.381C279.811 179.941 278.902 183.028 277.102 185.642C275.322 188.237 272.746 190.254 269.375 191.693C266.023 193.114 261.979 193.824 257.244 193.824C252.547 193.824 248.456 193.104 244.972 191.665C241.506 190.225 238.797 188.095 236.847 185.273C234.915 182.432 233.902 178.918 233.807 174.733H245.71C245.843 176.684 246.402 178.312 247.386 179.619C248.39 180.907 249.725 181.883 251.392 182.545C253.078 183.189 254.981 183.511 257.102 183.511C259.186 183.511 260.994 183.208 262.528 182.602C264.081 181.996 265.284 181.153 266.136 180.074C266.989 178.994 267.415 177.754 267.415 176.352C267.415 175.045 267.027 173.947 266.25 173.057C265.492 172.167 264.375 171.409 262.898 170.784C261.439 170.159 259.65 169.591 257.528 169.079L251.193 167.489C246.288 166.295 242.415 164.43 239.574 161.892C236.733 159.354 235.322 155.936 235.341 151.636C235.322 148.114 236.259 145.036 238.153 142.403C240.066 139.771 242.689 137.716 246.023 136.239C249.356 134.761 253.144 134.023 257.386 134.023C261.705 134.023 265.473 134.761 268.693 136.239C271.932 137.716 274.451 139.771 276.25 142.403C278.049 145.036 278.977 148.085 279.034 151.551H267.244Z" fill="black"/>
</svg>
